Pitch.Black
The.Chronicles.of.Riddick



Riddick.Pack.DC.2000.2004.HDDVD.1080p.x264.AC3-5.1-PeN\Pitch.Black.DC.2000.HDDVD.1080p.x264.AC3-5.1-PeN.mkv
   General
      Complete name : F:\Movies\Riddick.Pack.DC.2000.2004.HDDVD.1080p.x264.AC3-5.1-PeN\Pitch.Black.DC.2000.HDDVD.1080p.x264.AC3-5.1-PeN.mkv
      Format : Matroska
      File size : 4.37 GiB
      Duration : 1h 51mn
      Overall bit rate : 5 603 Kbps
      Encoded date : UTC 2010-09-02 20:44:59
      Writing application : mkvmerge v2.9.8 ('C'est le bon') built on Aug 13 2009 12:49:06
      Writing library : libebml v0.7.7 + libmatroska v0.8.1
      Cover : Yes
   Video #1
      ID : 1
      Format : AVC
      Format/Info : Advanced Video Codec
      Format profile : High@L4.0
      Format settings, CABAC : Yes
      Format settings, ReFrames : 5 frames
      Muxing mode : Container profile=Unknown@4.0
      Codec ID : V_MPEG4/ISO/AVC
      Duration : 1h 51mn
      Bit rate : 5 108 Kbps
      Nominal bit rate : 5 217 Kbps
      Width : 1 920 pixels
      Height : 816 pixels
      Display aspect ratio : 2.35:1
      Frame rate : 23.976 fps
      Resolution : 24 bits
      Colorimetry : 4:2:0
      Scan type : Progressive
      Bits/(Pixel*Frame) : 0.136
      Stream size : 3.98 GiB (91%)
      Writing library : x264 core 65
      Encoding settings : cabac=1 / ref=5 / deblock=1:-2:-2 / analyse=0x3:0x133 / me=umh / subme=9 / psy_rd=1.0:1.0 / mixed_ref=1 / me_range=32 / chroma_me=1 / trellis=1 / 8x8dct=1 / cqm=0 / deadzone=21,11 / chroma_qp_offset=-4 / threads=3 / nr=0 / decimate=1 / mbaff=0 / bframes=6 / b_pyramid=1 / b_adapt=1 / b_bias=0 / direct=3 / wpredb=1 / keyint=240 / keyint_min=24 / scenecut=40(pre) / rc=2pass / bitrate=5217 / ratetol=1.0 / qcomp=0.60 / qpmin=10 / qpmax=51 / qpstep=4 / cplxblur=20.0 / qblur=0.5 / ip_ratio=1.40 / pb_ratio=1.30 / aq=1:1.00
      Language : English
      colour_primaries : BT.709-5, BT.1361, IEC 61966-2-4, SMPTE RP177
      transfer_characteristics : BT.709-5, BT.1361
      matrix_coefficients : BT.709-5, BT.1361, IEC 61966-2-4 709, SMPTE RP177
   Audio #2
      ID : 2
      Format : AC-3
      Format/Info : Audio Coding 3
      Codec ID : A_AC3
      Duration : 1h 51mn
      Bit rate mode : Constant
      Bit rate : 384 Kbps
      Channel(s) : 6 channels
      Channel positions : Front: L C R, Surround: L R, LFE
      Sampling rate : 48.0 KHz
      Stream size : 307 MiB (7%)
      Language : English
   Text #3
      ID : 3
      Format : ASS
      Codec ID : S_TEXT/ASS
      Codec ID/Info : Advanced Sub Station Alpha
      Language : English
   Text #4
      ID : 4
      Format : UTF-8
      Codec ID : S_TEXT/UTF8
      Codec ID/Info : UTF-8 Plain Text
      Language : Bulgarian
   Text #5
      ID : 5
      Format : ASS
      Codec ID : S_TEXT/ASS
      Codec ID/Info : Advanced Sub Station Alpha
      Language : French
   Text #6
      ID : 6
      Format : ASS
      Codec ID : S_TEXT/ASS
      Codec ID/Info : Advanced Sub Station Alpha
      Language : Spanish
   Text #7
      ID : 7
      Format : ASS
      Codec ID : S_TEXT/ASS
      Codec ID/Info : Advanced Sub Station Alpha
      Language : Swedish
   Text #8
      ID : 8
      Format : ASS
      Codec ID : S_TEXT/ASS
      Codec ID/Info : Advanced Sub Station Alpha
      Language : Finnish
   Text #9
      ID : 9
      Format : ASS
      Codec ID : S_TEXT/ASS
      Codec ID/Info : Advanced Sub Station Alpha
      Language : Dutch
   Text #10
      ID : 10
      Format : ASS
      Codec ID : S_TEXT/ASS
      Codec ID/Info : Advanced Sub Station Alpha
      Language : Hungarian
   Text #11
      ID : 11
      Format : ASS
      Codec ID : S_TEXT/ASS
      Codec ID/Info : Advanced Sub Station Alpha
      Language : Romanian




Riddick.Pack.DC.2000.2004.HDDVD.1080p.x264.AC3-5.1-PeN\The.Chronicles.of.Riddick.DC.2004.BluRay.1080p.x264.AC3-5.1-PeN.mkv
   General
      Complete name : F:\Movies\Riddick.Pack.DC.2000.2004.HDDVD.1080p.x264.AC3-5.1-PeN\The.Chronicles.of.Riddick.DC.2004.BluRay.1080p.x264.AC3-5.1-PeN.mkv
      Format : Matroska
      File size : 4.37 GiB
      Duration : 2h 14mn
      Overall bit rate : 4 669 Kbps
      Encoded date : UTC 2010-09-26 03:56:44
      Writing application : mkvmerge v2.9.8 ('C'est le bon') built on Aug 13 2009 12:49:06
      Writing library : libebml v0.7.7 + libmatroska v0.8.1
   Video #1
      ID : 1
      Format : AVC
      Format/Info : Advanced Video Codec
      Format profile : High@L4.0
      Format settings, CABAC : Yes
      Format settings, ReFrames : 4 frames
      Muxing mode : Container profile=Unknown@4.0
      Codec ID : V_MPEG4/ISO/AVC
      Duration : 2h 13mn
      Bit rate : 4 192 Kbps
      Nominal bit rate : 4 283 Kbps
      Width : 1 916 pixels
      Height : 800 pixels
      Display aspect ratio : 2.35:1
      Frame rate : 23.976 fps
      Resolution : 24 bits
      Colorimetry : 4:2:0
      Scan type : Progressive
      Bits/(Pixel*Frame) : 0.114
      Stream size : 3.92 GiB (90%)
      Writing library : x264 core 65
      Encoding settings : cabac=1 / ref=4 / deblock=1:-2:-2 / analyse=0x3:0x133 / me=umh / subme=9 / psy_rd=1.0:1.0 / mixed_ref=1 / me_range=32 / chroma_me=1 / trellis=1 / 8x8dct=1 / cqm=0 / deadzone=21,11 / chroma_qp_offset=-4 / threads=3 / nr=0 / decimate=1 / mbaff=0 / bframes=6 / b_pyramid=1 / b_adapt=1 / b_bias=0 / direct=3 / wpredb=1 / keyint=240 / keyint_min=24 / scenecut=40(pre) / rc=2pass / bitrate=4283 / ratetol=1.0 / qcomp=0.60 / qpmin=10 / qpmax=51 / qpstep=4 / cplxblur=20.0 / qblur=0.5 / ip_ratio=1.40 / pb_ratio=1.30 / aq=1:1.00
      Language : English
      colour_primaries : BT.709-5, BT.1361, IEC 61966-2-4, SMPTE RP177
      transfer_characteristics : BT.709-5, BT.1361
      matrix_coefficients : BT.709-5, BT.1361, IEC 61966-2-4 709, SMPTE RP177
   Audio #3
      ID : 3
      Format : AC-3
      Format/Info : Audio Coding 3
      Codec ID : A_AC3
      Duration : 2h 14mn
      Bit rate mode : Constant
      Bit rate : 384 Kbps
      Channel(s) : 6 channels
      Channel positions : Front: L C R, Surround: L R, LFE
      Sampling rate : 48.0 KHz
      Stream size : 368 MiB (8%)
      Title : MainForm
      Language : English
   Text #2
      ID : 2
      Format : UTF-8
      Codec ID : S_TEXT/UTF8
      Codec ID/Info : UTF-8 Plain Text
      Language : Bulgarian
   Text #4
      ID : 4
      Format : UTF-8
      Codec ID : S_TEXT/UTF8
      Codec ID/Info : UTF-8 Plain Text
      Language : English